<svg width="49" height="28" viewBox="0 0 49 28" fill="none" xmlns="http://www.w3.org/2000/svg">
<path d="M24.7472 10.304H18.3551C18.2699 9.64773 18.0952 9.0554 17.831 8.52699C17.5668 7.99858 17.2173 7.54687 16.7827 7.17188C16.348 6.79688 15.8324 6.51136 15.2358 6.31534C14.6477 6.11079 13.9957 6.00852 13.2798 6.00852C12.0099 6.00852 10.9148 6.3196 9.99432 6.94176C9.08239 7.56392 8.37926 8.46307 7.88494 9.6392C7.39915 10.8153 7.15625 12.2386 7.15625 13.9091C7.15625 15.6477 7.40341 17.1051 7.89773 18.2812C8.40057 19.4489 9.10369 20.331 10.0071 20.9276C10.919 21.5156 11.9972 21.8097 13.2415 21.8097C13.9403 21.8097 14.5753 21.7202 15.1463 21.5412C15.7259 21.3622 16.233 21.1023 16.6676 20.7614C17.1108 20.4119 17.473 19.9901 17.7543 19.4957C18.044 18.9929 18.2443 18.4261 18.3551 17.7955L24.7472 17.8338C24.6364 18.9929 24.2997 20.1349 23.7372 21.2599C23.1832 22.3849 22.4205 23.4119 21.4489 24.3409C20.4773 25.2614 19.2926 25.9943 17.8949 26.5398C16.5057 27.0852 14.9119 27.358 13.1136 27.358C10.7443 27.358 8.62216 26.8381 6.74716 25.7983C4.88068 24.75 3.40625 23.2244 2.32386 21.2216C1.24148 19.2187 0.700284 16.7812 0.700284 13.9091C0.700284 11.0284 1.25 8.58665 2.34943 6.58381C3.44886 4.58097 4.93608 3.05966 6.81108 2.01989C8.68608 0.980113 10.7869 0.460226 13.1136 0.460226C14.6989 0.460226 16.1648 0.681818 17.5114 1.125C18.858 1.55966 20.0426 2.19886 21.0653 3.04261C22.0881 3.87784 22.919 4.90483 23.5582 6.12358C24.1974 7.34233 24.5938 8.7358 24.7472 10.304ZM38.8129 27.358C37.381 27.358 36.0089 27.1278 34.6964 26.6676C33.3839 26.1989 32.2163 25.4574 31.1935 24.4432C30.1708 23.4205 29.3654 22.0824 28.7773 20.429C28.1893 18.767 27.8995 16.7429 27.908 14.3565C27.9165 12.2003 28.1808 10.2656 28.7006 8.55256C29.2205 6.83097 29.962 5.36932 30.9251 4.16761C31.8967 2.96591 33.0558 2.04971 34.4023 1.41903C35.7575 0.779828 37.2702 0.460226 38.9407 0.460226C40.7731 0.460226 42.3881 0.818181 43.7859 1.53409C45.1921 2.24148 46.3171 3.19602 47.1609 4.39773C48.0046 5.59091 48.5032 6.92045 48.6566 8.38636H42.4308C42.2433 7.55966 41.8299 6.93324 41.1907 6.5071C40.56 6.07244 39.81 5.85511 38.9407 5.85511C37.3384 5.85511 36.141 6.54971 35.3484 7.93892C34.5643 9.32812 34.1637 11.1861 34.1467 13.5128H34.3129C34.6708 12.7287 35.1864 12.0554 35.8597 11.4929C36.533 10.9304 37.3043 10.5 38.1737 10.2017C39.0515 9.89489 39.9805 9.74148 40.9606 9.74148C42.5288 9.74148 43.9137 10.1037 45.1154 10.8281C46.3171 11.5526 47.2589 12.5455 47.9407 13.8068C48.6225 15.0597 48.9592 16.4957 48.9506 18.1151C48.9592 19.9389 48.533 21.5497 47.6722 22.9474C46.8114 24.3366 45.6183 25.419 44.0927 26.1946C42.5756 26.9702 40.8157 27.358 38.8129 27.358ZM38.7745 22.5C39.5501 22.5 40.2447 22.3168 40.8583 21.9503C41.4719 21.5838 41.9535 21.0852 42.3029 20.4545C42.6523 19.8239 42.8228 19.1122 42.8143 18.3196C42.8228 17.5185 42.6523 16.8068 42.3029 16.1847C41.962 15.5625 41.4847 15.0682 40.8711 14.7017C40.266 14.3352 39.5714 14.152 38.7873 14.152C38.2163 14.152 37.6836 14.2585 37.1893 14.4716C36.695 14.6847 36.2646 14.983 35.8981 15.3665C35.5401 15.7415 35.2589 16.1847 35.0543 16.696C34.8498 17.1989 34.7433 17.7443 34.7347 18.3324C34.7433 19.108 34.9222 19.8111 35.2717 20.4418C35.6211 21.0724 36.0984 21.5753 36.7035 21.9503C37.3086 22.3168 37.9989 22.5 38.7745 22.5Z" fill="#3C0174"/>
</svg>
